<?xml version="1.0" encoding="utf-8" ?>
<svg xmlns="http://www.w3.org/2000/svg" xmlns:xlink="http://www.w3.org/1999/xlink" width="528" height="234">
	<rect fill="rgb(0,0,0)" stroke="none" width="528" height="234"/>
	<path fill="rgb(96,96,96)" stroke="none" transform="scale(0.166667 0.166667)" d="M2060.65 724.01C1998 797 2004.27 990.582 2194.31 971.541C2244.44 1060.4 2382.27 1108 2426.13 965.194C2586.94 974.714 2612 917.592 2522.2 812.867C2603.65 619.286 2497.14 593.898 2426.13 651.02C2403.16 546.296 2250.7 549.469 2238.17 631.98C2162.99 486 2033.5 543.122 2060.65 724.01"/>
	<rect fill="rgb(96,96,96)" stroke="none" transform="scale(0.166667 0.166667)" x="576" y="525" width="468" height="546"/>
	<defs>
		<linearGradient id="gradient_0" gradientUnits="userSpaceOnUse" x1="558" y1="507" x2="714" y2="1053">
			<stop offset="0" stop-color="rgb(226,196,156)"/>
			<stop offset="1" stop-color="rgb(250,220,180)"/>
		</linearGradient>
	</defs>
	<rect fill="url(#gradient_0)" stroke="none" transform="scale(0.166667 0.166667)" x="558" y="507" width="468" height="546"/>
	<rect fill="none" stroke="rgb(255,255,255)" stroke-width="6" stroke-miterlimit="4" transform="scale(0.166667 0.166667)" x="558" y="507" width="468" height="546"/>
	<path fill="none" stroke="rgb(255,255,255)" stroke-width="6" stroke-miterlimit="4" transform="scale(0.166667 0.166667)" d="M558 951L600 975L558 999"/>
	<rect fill="rgb(96,96,96)" stroke="none" transform="scale(0.166667 0.166667)" x="1332" y="525" width="432" height="546"/>
	<rect fill="rgb(0,0,128)" stroke="none" transform="scale(0.166667 0.166667)" x="1314" y="507" width="432" height="546"/>
	<rect fill="none" stroke="rgb(255,255,255)" stroke-width="6" stroke-miterlimit="4" transform="scale(0.166667 0.166667)" x="1314" y="507" width="432" height="546"/>
	<path fill="none" stroke="rgb(255,255,255)" stroke-width="6" stroke-miterlimit="4" transform="scale(0.166667 0.166667)" d="M1314 951L1356 975L1314 999"/>
	<path fill="none" stroke="rgb(255,255,255)" stroke-width="6" stroke-miterlimit="4" transform="scale(0.166667 0.166667)" d="M2358 234L2358 624"/>
	<path fill="none" stroke="rgb(255,255,255)" stroke-width="6" stroke-miterlimit="4" transform="scale(0.166667 0.166667)" d="M447 351L2145 351"/>
	<path fill="none" stroke="rgb(255,255,255)" stroke-width="6" stroke-miterlimit="4" transform="scale(0.166667 0.166667)" d="M450 348L450 744"/>
	<path fill="none" stroke="rgb(255,255,255)" stroke-width="6" stroke-miterlimit="4" transform="scale(0.166667 0.166667)" d="M2142 348L2142 624"/>
	<path fill="none" stroke="rgb(255,255,255)" stroke-width="6" stroke-miterlimit="4" transform="scale(0.166667 0.166667)" d="M447 741L540 741"/>
	<path fill="rgb(255,255,255)" stroke="none" transform="scale(0.166667 0.166667)" d="M516 711L552 741L516 771L516 711"/>
	<path fill="none" stroke="rgb(255,255,255)" stroke-width="6" stroke-miterlimit="4" transform="scale(0.166667 0.166667)" d="M1023 741L1296 741"/>
	<path fill="rgb(255,255,255)" stroke="none" transform="scale(0.166667 0.166667)" d="M1272 711L1308 741L1272 771L1272 711"/>
	<path fill="none" stroke="rgb(255,255,255)" stroke-width="6" stroke-miterlimit="4" transform="scale(0.166667 0.166667)" d="M1743 741L1980 741"/>
	<path fill="rgb(255,255,255)" stroke="none" transform="scale(0.166667 0.166667)" d="M1956 711L1992 741L1956 771L1956 711"/>
	<path fill="none" stroke="rgb(255,255,255)" vector-effect="non-scaling-stroke" stroke-width="1" stroke-miterlimit="4" stroke-opacity="0.25098041" transform="scale(0.166667 0.166667)" d="M1998 741L2088 741"/>
	<path fill="none" stroke="rgb(255,255,255)" stroke-width="6" stroke-miterlimit="4" transform="scale(0.166667 0.166667)" d="M2484 741L2757 741"/>
	<path fill="rgb(255,255,255)" stroke="none" transform="scale(0.166667 0.166667)" d="M2730 711L2769 741L2730 771L2730 711"/>
	<path fill="none" stroke="rgb(255,255,255)" stroke-width="6" stroke-miterlimit="4" transform="scale(0.166667 0.166667)" d="M447 975L561 975"/>
	<path fill="none" stroke="rgb(255,255,255)" stroke-width="6" stroke-miterlimit="4" transform="scale(0.166667 0.166667)" d="M450 972L450 1212"/>
	<path fill="rgb(255,255,255)" stroke="none" transform="scale(0.166667 0.166667)" d="M450 1212M463.2 1212Q463.2 1212.32 463.184 1212.65Q463.168 1212.97 463.136 1213.29Q463.105 1213.62 463.057 1213.94Q463.01 1214.26 462.946 1214.58Q462.883 1214.89 462.804 1215.21Q462.726 1215.52 462.632 1215.83Q462.538 1216.14 462.428 1216.45Q462.319 1216.75 462.195 1217.05Q462.071 1217.35 461.933 1217.64Q461.794 1217.94 461.641 1218.22Q461.489 1218.51 461.322 1218.79Q461.155 1219.06 460.975 1219.33Q460.795 1219.6 460.602 1219.86Q460.409 1220.12 460.204 1220.37Q459.998 1220.62 459.781 1220.86Q459.563 1221.1 459.334 1221.33Q459.105 1221.56 458.865 1221.78Q458.624 1222 458.374 1222.2Q458.123 1222.41 457.863 1222.6Q457.603 1222.8 457.333 1222.98Q457.064 1223.16 456.786 1223.32Q456.508 1223.49 456.222 1223.64Q455.937 1223.79 455.644 1223.93Q455.351 1224.07 455.051 1224.2Q454.752 1224.32 454.447 1224.43Q454.142 1224.54 453.832 1224.63Q453.522 1224.73 453.207 1224.8Q452.893 1224.88 452.575 1224.95Q452.257 1225.01 451.937 1225.06Q451.616 1225.1 451.294 1225.14Q450.971 1225.17 450.648 1225.18Q450.324 1225.2 450 1225.2Q449.676 1225.2 449.352 1225.18Q449.029 1225.17 448.706 1225.14Q448.384 1225.1 448.063 1225.06Q447.743 1225.01 447.425 1224.95Q447.107 1224.88 446.793 1224.8Q446.478 1224.73 446.168 1224.63Q445.858 1224.54 445.553 1224.43Q445.248 1224.32 444.949 1224.2Q444.649 1224.07 444.356 1223.93Q444.063 1223.79 443.778 1223.64Q443.492 1223.49 443.214 1223.32Q442.936 1223.16 442.666 1222.98Q442.397 1222.8 442.137 1222.6Q441.877 1222.41 441.626 1222.2Q441.376 1222 441.135 1221.78Q440.895 1221.56 440.666 1221.33Q440.437 1221.1 440.219 1220.86Q440.002 1220.62 439.796 1220.37Q439.591 1220.12 439.398 1219.86Q439.205 1219.6 439.025 1219.33Q438.845 1219.06 438.678 1218.79Q438.511 1218.51 438.359 1218.22Q438.206 1217.94 438.067 1217.64Q437.929 1217.35 437.805 1217.05Q437.681 1216.75 437.572 1216.45Q437.462 1216.14 437.368 1215.83Q437.274 1215.52 437.196 1215.21Q437.117 1214.89 437.054 1214.58Q436.99 1214.26 436.943 1213.94Q436.895 1213.62 436.864 1213.29Q436.832 1212.97 436.816 1212.65Q436.8 1212.32 436.8 1212Q436.8 1211.68 436.816 1211.35Q436.832 1211.03 436.864 1210.71Q436.895 1210.38 436.943 1210.06Q436.99 1209.74 437.054 1209.42Q437.117 1209.11 437.196 1208.79Q437.274 1208.48 437.368 1208.17Q437.462 1207.86 437.572 1207.55Q437.681 1207.25 437.805 1206.95Q437.929 1206.65 438.067 1206.36Q438.206 1206.06 438.359 1205.78Q438.511 1205.49 438.678 1205.21Q438.844 1204.94 439.025 1204.67Q439.205 1204.4 439.398 1204.14Q439.591 1203.88 439.796 1203.63Q440.002 1203.38 440.219 1203.14Q440.437 1202.9 440.666 1202.67Q440.895 1202.44 441.135 1202.22Q441.375 1202 441.626 1201.8Q441.876 1201.59 442.137 1201.4Q442.397 1201.2 442.666 1201.02Q442.936 1200.84 443.214 1200.68Q443.492 1200.51 443.778 1200.36Q444.063 1200.21 444.356 1200.07Q444.649 1199.93 444.949 1199.8Q445.248 1199.68 445.553 1199.57Q445.858 1199.46 446.168 1199.37Q446.478 1199.27 446.793 1199.2Q447.107 1199.12 447.425 1199.05Q447.743 1198.99 448.063 1198.94Q448.384 1198.9 448.706 1198.86Q449.029 1198.83 449.352 1198.82Q449.676 1198.8 450 1198.8Q450.324 1198.8 450.648 1198.82Q450.971 1198.83 451.294 1198.86Q451.616 1198.9 451.937 1198.94Q452.257 1198.99 452.575 1199.05Q452.893 1199.12 453.207 1199.2Q453.522 1199.27 453.832 1199.37Q454.142 1199.46 454.447 1199.57Q454.752 1199.68 455.051 1199.8Q455.351 1199.93 455.644 1200.07Q455.937 1200.21 456.222 1200.36Q456.508 1200.51 456.786 1200.68Q457.064 1200.84 457.333 1201.02Q457.603 1201.2 457.863 1201.4Q458.123 1201.59 458.374 1201.8Q458.624 1202 458.865 1202.22Q459.105 1202.44 459.334 1202.67Q459.563 1202.9 459.781 1203.14Q459.998 1203.38 460.204 1203.63Q460.409 1203.88 460.602 1204.14Q460.795 1204.4 460.975 1204.67Q461.155 1204.94 461.322 1205.21Q461.489 1205.49 461.641 1205.78Q461.794 1206.06 461.933 1206.36Q462.071 1206.65 462.195 1206.95Q462.319 1207.25 462.428 1207.55Q462.538 1207.86 462.632 1208.17Q462.726 1208.48 462.804 1208.79Q462.883 1209.11 462.946 1209.42Q463.01 1209.74 463.057 1210.06Q463.105 1210.38 463.136 1210.71Q463.168 1211.03 463.184 1211.35Q463.2 1211.68 463.2 1212Z"/>
	<path fill="none" stroke="rgb(255,255,255)" stroke-width="6" stroke-miterlimit="4" transform="scale(0.166667 0.166667)" d="M1203 975L1317 975"/>
	<path fill="none" stroke="rgb(255,255,255)" stroke-width="6" stroke-miterlimit="4" transform="scale(0.166667 0.166667)" d="M1206 972L1206 1212"/>
	<path fill="rgb(255,255,255)" stroke="none" transform="scale(0.166667 0.166667)" d="M1206 1212M1219.2 1212Q1219.2 1212.32 1219.18 1212.65Q1219.17 1212.97 1219.14 1213.29Q1219.1 1213.62 1219.06 1213.94Q1219.01 1214.26 1218.95 1214.58Q1218.88 1214.89 1218.8 1215.21Q1218.73 1215.52 1218.63 1215.83Q1218.54 1216.14 1218.43 1216.45Q1218.32 1216.75 1218.2 1217.05Q1218.07 1217.35 1217.93 1217.64Q1217.79 1217.94 1217.64 1218.22Q1217.49 1218.51 1217.32 1218.79Q1217.16 1219.06 1216.98 1219.33Q1216.8 1219.6 1216.6 1219.86Q1216.41 1220.12 1216.2 1220.37Q1216 1220.62 1215.78 1220.86Q1215.56 1221.1 1215.33 1221.33Q1215.1 1221.56 1214.86 1221.78Q1214.62 1222 1214.37 1222.2Q1214.12 1222.41 1213.86 1222.6Q1213.6 1222.8 1213.33 1222.98Q1213.06 1223.16 1212.79 1223.32Q1212.51 1223.49 1212.22 1223.64Q1211.94 1223.79 1211.64 1223.93Q1211.35 1224.07 1211.05 1224.2Q1210.75 1224.32 1210.45 1224.43Q1210.14 1224.54 1209.83 1224.63Q1209.52 1224.73 1209.21 1224.8Q1208.89 1224.88 1208.58 1224.95Q1208.26 1225.01 1207.94 1225.06Q1207.62 1225.1 1207.29 1225.14Q1206.97 1225.17 1206.65 1225.18Q1206.32 1225.2 1206 1225.2Q1205.68 1225.2 1205.35 1225.18Q1205.03 1225.17 1204.71 1225.14Q1204.38 1225.1 1204.06 1225.06Q1203.74 1225.01 1203.42 1224.95Q1203.11 1224.88 1202.79 1224.8Q1202.48 1224.73 1202.17 1224.63Q1201.86 1224.54 1201.55 1224.43Q1201.25 1224.32 1200.95 1224.2Q1200.65 1224.07 1200.36 1223.93Q1200.06 1223.79 1199.78 1223.64Q1199.49 1223.49 1199.21 1223.32Q1198.94 1223.16 1198.67 1222.98Q1198.4 1222.8 1198.14 1222.6Q1197.88 1222.41 1197.63 1222.2Q1197.38 1222 1197.14 1221.78Q1196.9 1221.56 1196.67 1221.33Q1196.44 1221.1 1196.22 1220.86Q1196 1220.62 1195.8 1220.37Q1195.59 1220.12 1195.4 1219.86Q1195.2 1219.6 1195.02 1219.33Q1194.84 1219.06 1194.68 1218.79Q1194.51 1218.51 1194.36 1218.22Q1194.21 1217.94 1194.07 1217.64Q1193.93 1217.35 1193.8 1217.05Q1193.68 1216.75 1193.57 1216.45Q1193.46 1216.14 1193.37 1215.83Q1193.27 1215.52 1193.2 1215.21Q1193.12 1214.89 1193.05 1214.58Q1192.99 1214.26 1192.94 1213.94Q1192.9 1213.62 1192.86 1213.29Q1192.83 1212.97 1192.82 1212.65Q1192.8 1212.32 1192.8 1212Q1192.8 1211.68 1192.82 1211.35Q1192.83 1211.03 1192.86 1210.71Q1192.9 1210.38 1192.94 1210.06Q1192.99 1209.74 1193.05 1209.42Q1193.12 1209.11 1193.2 1208.79Q1193.27 1208.48 1193.37 1208.17Q1193.46 1207.86 1193.57 1207.55Q1193.68 1207.25 1193.8 1206.95Q1193.93 1206.65 1194.07 1206.36Q1194.21 1206.06 1194.36 1205.78Q1194.51 1205.49 1194.68 1205.21Q1194.84 1204.94 1195.02 1204.67Q1195.2 1204.4 1195.4 1204.14Q1195.59 1203.88 1195.8 1203.63Q1196 1203.38 1196.22 1203.14Q1196.44 1202.9 1196.67 1202.67Q1196.9 1202.44 1197.14 1202.22Q1197.38 1202 1197.63 1201.8Q1197.88 1201.59 1198.14 1201.4Q1198.4 1201.2 1198.67 1201.02Q1198.94 1200.84 1199.21 1200.68Q1199.49 1200.51 1199.78 1200.36Q1200.06 1200.21 1200.36 1200.07Q1200.65 1199.93 1200.95 1199.8Q1201.25 1199.68 1201.55 1199.57Q1201.86 1199.46 1202.17 1199.37Q1202.48 1199.27 1202.79 1199.2Q1203.11 1199.12 1203.42 1199.05Q1203.74 1198.99 1204.06 1198.94Q1204.38 1198.9 1204.71 1198.86Q1205.03 1198.83 1205.35 1198.82Q1205.68 1198.8 1206 1198.8Q1206.32 1198.8 1206.65 1198.82Q1206.97 1198.83 1207.29 1198.86Q1207.62 1198.9 1207.94 1198.94Q1208.26 1198.99 1208.58 1199.05Q1208.89 1199.12 1209.21 1199.2Q1209.52 1199.27 1209.83 1199.37Q1210.14 1199.46 1210.45 1199.57Q1210.75 1199.68 1211.05 1199.8Q1211.35 1199.93 1211.64 1200.07Q1211.94 1200.21 1212.22 1200.36Q1212.51 1200.51 1212.79 1200.68Q1213.06 1200.84 1213.33 1201.02Q1213.6 1201.2 1213.86 1201.4Q1214.12 1201.59 1214.37 1201.8Q1214.62 1202 1214.86 1202.22Q1215.1 1202.44 1215.33 1202.67Q1215.56 1202.9 1215.78 1203.14Q1216 1203.38 1216.2 1203.63Q1216.41 1203.88 1216.6 1204.14Q1216.8 1204.4 1216.98 1204.67Q1217.16 1204.94 1217.32 1205.21Q1217.49 1205.49 1217.64 1205.78Q1217.79 1206.06 1217.93 1206.36Q1218.07 1206.65 1218.2 1206.95Q1218.32 1207.25 1218.43 1207.55Q1218.54 1207.86 1218.63 1208.17Q1218.73 1208.48 1218.8 1208.79Q1218.88 1209.11 1218.95 1209.42Q1219.01 1209.74 1219.06 1210.06Q1219.1 1210.38 1219.14 1210.71Q1219.17 1211.03 1219.18 1211.35Q1219.2 1211.68 1219.2 1212Z"/>
	<path fill="none" stroke="rgb(255,255,255)" vector-effect="non-scaling-stroke" stroke-width="1" stroke-miterlimit="4" stroke-opacity="0.25098041" transform="scale(0.166667 0.166667)" d="M2286 936L2286 1014"/>
	<path fill="none" stroke="rgb(255,255,255)" stroke-width="6" stroke-miterlimit="4" transform="scale(0.166667 0.166667)" d="M252 1209L2289 1209"/>
	<path fill="none" stroke="rgb(255,255,255)" stroke-width="6" stroke-miterlimit="4" transform="scale(0.166667 0.166667)" d="M450 1206L450 1212"/>
	<path fill="rgb(255,255,255)" stroke="none" transform="scale(0.166667 0.166667)" d="M450 1206M461 1209Q461 1209.29 460.986 1209.59Q460.971 1209.88 460.942 1210.18Q460.913 1210.47 460.87 1210.76Q460.827 1211.05 460.769 1211.34Q460.712 1211.63 460.64 1211.92Q460.569 1212.2 460.483 1212.48Q460.398 1212.77 460.298 1213.04Q460.199 1213.32 460.086 1213.59Q459.974 1213.86 459.848 1214.13Q459.722 1214.4 459.583 1214.66Q459.444 1214.92 459.293 1215.17Q459.141 1215.42 458.978 1215.67Q458.814 1215.91 458.638 1216.15Q458.463 1216.38 458.276 1216.61Q458.089 1216.84 457.891 1217.06Q457.694 1217.28 457.485 1217.49Q457.277 1217.69 457.059 1217.89Q456.84 1218.09 456.613 1218.28Q456.385 1218.46 456.148 1218.64Q455.912 1218.81 455.667 1218.98Q455.422 1219.14 455.169 1219.29Q454.917 1219.44 454.657 1219.58Q454.397 1219.72 454.131 1219.85Q453.864 1219.97 453.592 1220.09Q453.32 1220.2 453.043 1220.3Q452.765 1220.4 452.483 1220.48Q452.201 1220.57 451.916 1220.64Q451.63 1220.71 451.341 1220.77Q451.052 1220.83 450.761 1220.87Q450.469 1220.91 450.176 1220.94Q449.883 1220.97 449.589 1220.99Q449.295 1221 449 1221Q448.705 1221 448.411 1220.99Q448.117 1220.97 447.824 1220.94Q447.531 1220.91 447.239 1220.87Q446.948 1220.83 446.659 1220.77Q446.37 1220.71 446.084 1220.64Q445.798 1220.57 445.517 1220.48Q445.235 1220.4 444.957 1220.3Q444.68 1220.2 444.408 1220.09Q444.136 1219.97 443.869 1219.85Q443.603 1219.72 443.343 1219.58Q443.083 1219.44 442.831 1219.29Q442.578 1219.14 442.333 1218.98Q442.088 1218.81 441.852 1218.64Q441.615 1218.46 441.387 1218.28Q441.16 1218.09 440.941 1217.89Q440.723 1217.69 440.515 1217.49Q440.306 1217.28 440.109 1217.06Q439.911 1216.84 439.724 1216.61Q439.537 1216.38 439.361 1216.15Q439.186 1215.91 439.022 1215.67Q438.859 1215.42 438.707 1215.17Q438.556 1214.92 438.417 1214.66Q438.278 1214.4 438.152 1214.13Q438.026 1213.86 437.913 1213.59Q437.801 1213.32 437.701 1213.04Q437.602 1212.77 437.517 1212.48Q437.431 1212.2 437.36 1211.92Q437.288 1211.63 437.231 1211.34Q437.173 1211.05 437.13 1210.76Q437.087 1210.47 437.058 1210.18Q437.029 1209.88 437.014 1209.59Q437 1209.29 437 1209Q437 1208.71 437.014 1208.41Q437.029 1208.12 437.058 1207.82Q437.087 1207.53 437.13 1207.24Q437.173 1206.95 437.231 1206.66Q437.288 1206.37 437.36 1206.08Q437.431 1205.8 437.517 1205.52Q437.602 1205.23 437.701 1204.96Q437.801 1204.68 437.913 1204.41Q438.026 1204.14 438.152 1203.87Q438.278 1203.6 438.417 1203.34Q438.556 1203.08 438.707 1202.83Q438.859 1202.58 439.022 1202.33Q439.186 1202.09 439.361 1201.85Q439.537 1201.61 439.724 1201.39Q439.911 1201.16 440.109 1200.94Q440.306 1200.72 440.515 1200.51Q440.723 1200.31 440.941 1200.11Q441.16 1199.91 441.387 1199.72Q441.615 1199.54 441.852 1199.36Q442.088 1199.19 442.333 1199.02Q442.578 1198.86 442.831 1198.71Q443.083 1198.56 443.343 1198.42Q443.603 1198.28 443.869 1198.15Q444.136 1198.03 444.408 1197.91Q444.68 1197.8 444.957 1197.7Q445.235 1197.6 445.517 1197.52Q445.798 1197.43 446.084 1197.36Q446.37 1197.29 446.659 1197.23Q446.948 1197.17 447.239 1197.13Q447.531 1197.09 447.824 1197.06Q448.117 1197.03 448.411 1197.01Q448.705 1197 449 1197Q449.295 1197 449.589 1197.01Q449.883 1197.03 450.176 1197.06Q450.469 1197.09 450.761 1197.13Q451.052 1197.17 451.341 1197.23Q451.63 1197.29 451.916 1197.36Q452.201 1197.43 452.483 1197.52Q452.765 1197.6 453.043 1197.7Q453.32 1197.8 453.592 1197.91Q453.864 1198.03 454.131 1198.15Q454.397 1198.28 454.657 1198.42Q454.916 1198.56 455.169 1198.71Q455.422 1198.86 455.667 1199.02Q455.912 1199.19 456.148 1199.36Q456.385 1199.54 456.613 1199.72Q456.84 1199.91 457.059 1200.11Q457.277 1200.31 457.485 1200.51Q457.694 1200.72 457.891 1200.94Q458.089 1201.16 458.276 1201.39Q458.463 1201.61 458.638 1201.85Q458.814 1202.09 458.978 1202.33Q459.141 1202.58 459.293 1202.83Q459.444 1203.08 459.583 1203.34Q459.722 1203.6 459.848 1203.87Q459.974 1204.14 460.086 1204.41Q460.199 1204.68 460.298 1204.96Q460.398 1205.23 460.483 1205.52Q460.569 1205.8 460.64 1206.08Q460.712 1206.37 460.769 1206.66Q460.827 1206.95 460.87 1207.24Q460.913 1207.53 460.942 1207.82Q460.971 1208.12 460.986 1208.41Q461 1208.71 461 1209Z"/>
	<path fill="rgb(255,255,255)" stroke="none" transform="scale(0.166667 0.166667)" d="M450 1212M463.2 1212Q463.2 1212.32 463.184 1212.65Q463.168 1212.97 463.136 1213.29Q463.105 1213.62 463.057 1213.94Q463.01 1214.26 462.946 1214.58Q462.883 1214.89 462.804 1215.21Q462.726 1215.52 462.632 1215.83Q462.538 1216.14 462.428 1216.45Q462.319 1216.75 462.195 1217.05Q462.071 1217.35 461.933 1217.64Q461.794 1217.94 461.641 1218.22Q461.489 1218.51 461.322 1218.79Q461.155 1219.06 460.975 1219.33Q460.795 1219.6 460.602 1219.86Q460.409 1220.12 460.204 1220.37Q459.998 1220.62 459.781 1220.86Q459.563 1221.1 459.334 1221.33Q459.105 1221.56 458.865 1221.78Q458.624 1222 458.374 1222.2Q458.123 1222.41 457.863 1222.6Q457.603 1222.8 457.333 1222.98Q457.064 1223.16 456.786 1223.32Q456.508 1223.49 456.222 1223.64Q455.937 1223.79 455.644 1223.93Q455.351 1224.07 455.051 1224.2Q454.752 1224.32 454.447 1224.43Q454.142 1224.54 453.832 1224.63Q453.522 1224.73 453.207 1224.8Q452.893 1224.88 452.575 1224.95Q452.257 1225.01 451.937 1225.06Q451.616 1225.1 451.294 1225.14Q450.971 1225.17 450.648 1225.18Q450.324 1225.2 450 1225.2Q449.676 1225.2 449.352 1225.18Q449.029 1225.17 448.706 1225.14Q448.384 1225.1 448.063 1225.06Q447.743 1225.01 447.425 1224.95Q447.107 1224.88 446.793 1224.8Q446.478 1224.73 446.168 1224.63Q445.858 1224.54 445.553 1224.43Q445.248 1224.32 444.949 1224.2Q444.649 1224.07 444.356 1223.93Q444.063 1223.79 443.778 1223.64Q443.492 1223.49 443.214 1223.32Q442.936 1223.16 442.666 1222.98Q442.397 1222.8 442.137 1222.6Q441.877 1222.41 441.626 1222.2Q441.376 1222 441.135 1221.78Q440.895 1221.56 440.666 1221.33Q440.437 1221.1 440.219 1220.86Q440.002 1220.62 439.796 1220.37Q439.591 1220.12 439.398 1219.86Q439.205 1219.6 439.025 1219.33Q438.845 1219.06 438.678 1218.79Q438.511 1218.51 438.359 1218.22Q438.206 1217.94 438.067 1217.64Q437.929 1217.35 437.805 1217.05Q437.681 1216.75 437.572 1216.45Q437.462 1216.14 437.368 1215.83Q437.274 1215.52 437.196 1215.21Q437.117 1214.89 437.054 1214.58Q436.99 1214.26 436.943 1213.94Q436.895 1213.62 436.864 1213.29Q436.832 1212.97 436.816 1212.65Q436.8 1212.32 436.8 1212Q436.8 1211.68 436.816 1211.35Q436.832 1211.03 436.864 1210.71Q436.895 1210.38 436.943 1210.06Q436.99 1209.74 437.054 1209.42Q437.117 1209.11 437.196 1208.79Q437.274 1208.48 437.368 1208.17Q437.462 1207.86 437.572 1207.55Q437.681 1207.25 437.805 1206.95Q437.929 1206.65 438.067 1206.36Q438.206 1206.06 438.359 1205.78Q438.511 1205.49 438.678 1205.21Q438.844 1204.94 439.025 1204.67Q439.205 1204.4 439.398 1204.14Q439.591 1203.88 439.796 1203.63Q440.002 1203.38 440.219 1203.14Q440.437 1202.9 440.666 1202.67Q440.895 1202.44 441.135 1202.22Q441.375 1202 441.626 1201.8Q441.876 1201.59 442.137 1201.4Q442.397 1201.2 442.666 1201.02Q442.936 1200.84 443.214 1200.68Q443.492 1200.51 443.778 1200.36Q444.063 1200.21 444.356 1200.07Q444.649 1199.93 444.949 1199.8Q445.248 1199.68 445.553 1199.57Q445.858 1199.46 446.168 1199.37Q446.478 1199.27 446.793 1199.2Q447.107 1199.12 447.425 1199.05Q447.743 1198.99 448.063 1198.94Q448.384 1198.9 448.706 1198.86Q449.029 1198.83 449.352 1198.82Q449.676 1198.8 450 1198.8Q450.324 1198.8 450.648 1198.82Q450.971 1198.83 451.294 1198.86Q451.616 1198.9 451.937 1198.94Q452.257 1198.99 452.575 1199.05Q452.893 1199.12 453.207 1199.2Q453.522 1199.27 453.832 1199.37Q454.142 1199.46 454.447 1199.57Q454.752 1199.68 455.051 1199.8Q455.351 1199.93 455.644 1200.07Q455.937 1200.21 456.222 1200.36Q456.508 1200.51 456.786 1200.68Q457.064 1200.84 457.333 1201.02Q457.603 1201.2 457.863 1201.4Q458.123 1201.59 458.374 1201.8Q458.624 1202 458.865 1202.22Q459.105 1202.44 459.334 1202.67Q459.563 1202.9 459.781 1203.14Q459.998 1203.38 460.204 1203.63Q460.409 1203.88 460.602 1204.14Q460.795 1204.4 460.975 1204.67Q461.155 1204.94 461.322 1205.21Q461.489 1205.49 461.641 1205.78Q461.794 1206.06 461.933 1206.36Q462.071 1206.65 462.195 1206.95Q462.319 1207.25 462.428 1207.55Q462.538 1207.86 462.632 1208.17Q462.726 1208.48 462.804 1208.79Q462.883 1209.11 462.946 1209.42Q463.01 1209.74 463.057 1210.06Q463.105 1210.38 463.136 1210.71Q463.168 1211.03 463.184 1211.35Q463.2 1211.68 463.2 1212Z"/>
	<path fill="none" stroke="rgb(255,255,255)" stroke-width="6" stroke-miterlimit="4" transform="scale(0.166667 0.166667)" d="M1206 1206L1206 1212"/>
	<path fill="rgb(255,255,255)" stroke="none" transform="scale(0.166667 0.166667)" d="M1206 1206M1217 1209Q1217 1209.29 1216.99 1209.59Q1216.97 1209.88 1216.94 1210.18Q1216.91 1210.47 1216.87 1210.76Q1216.83 1211.05 1216.77 1211.34Q1216.71 1211.63 1216.64 1211.92Q1216.57 1212.2 1216.48 1212.48Q1216.4 1212.77 1216.3 1213.04Q1216.2 1213.32 1216.09 1213.59Q1215.97 1213.86 1215.85 1214.13Q1215.72 1214.4 1215.58 1214.66Q1215.44 1214.92 1215.29 1215.17Q1215.14 1215.42 1214.98 1215.67Q1214.81 1215.91 1214.64 1216.15Q1214.46 1216.38 1214.28 1216.61Q1214.09 1216.84 1213.89 1217.06Q1213.69 1217.28 1213.49 1217.49Q1213.28 1217.69 1213.06 1217.89Q1212.84 1218.09 1212.61 1218.28Q1212.38 1218.46 1212.15 1218.64Q1211.91 1218.81 1211.67 1218.98Q1211.42 1219.14 1211.17 1219.29Q1210.92 1219.44 1210.66 1219.58Q1210.4 1219.72 1210.13 1219.85Q1209.86 1219.97 1209.59 1220.09Q1209.32 1220.2 1209.04 1220.3Q1208.77 1220.4 1208.48 1220.48Q1208.2 1220.57 1207.92 1220.64Q1207.63 1220.71 1207.34 1220.77Q1207.05 1220.83 1206.76 1220.87Q1206.47 1220.91 1206.18 1220.94Q1205.88 1220.97 1205.59 1220.99Q1205.29 1221 1205 1221Q1204.71 1221 1204.41 1220.99Q1204.12 1220.97 1203.82 1220.94Q1203.53 1220.91 1203.24 1220.87Q1202.95 1220.83 1202.66 1220.77Q1202.37 1220.71 1202.08 1220.64Q1201.8 1220.57 1201.52 1220.48Q1201.23 1220.4 1200.96 1220.3Q1200.68 1220.2 1200.41 1220.09Q1200.14 1219.97 1199.87 1219.85Q1199.6 1219.72 1199.34 1219.58Q1199.08 1219.44 1198.83 1219.29Q1198.58 1219.14 1198.33 1218.98Q1198.09 1218.81 1197.85 1218.64Q1197.61 1218.46 1197.39 1218.28Q1197.16 1218.09 1196.94 1217.89Q1196.72 1217.69 1196.51 1217.49Q1196.31 1217.28 1196.11 1217.06Q1195.91 1216.84 1195.72 1216.61Q1195.54 1216.38 1195.36 1216.15Q1195.19 1215.91 1195.02 1215.67Q1194.86 1215.42 1194.71 1215.17Q1194.56 1214.92 1194.42 1214.66Q1194.28 1214.4 1194.15 1214.13Q1194.03 1213.86 1193.91 1213.59Q1193.8 1213.32 1193.7 1213.04Q1193.6 1212.77 1193.52 1212.48Q1193.43 1212.2 1193.36 1211.92Q1193.29 1211.63 1193.23 1211.34Q1193.17 1211.05 1193.13 1210.76Q1193.09 1210.47 1193.06 1210.18Q1193.03 1209.88 1193.01 1209.59Q1193 1209.29 1193 1209Q1193 1208.71 1193.01 1208.41Q1193.03 1208.12 1193.06 1207.82Q1193.09 1207.53 1193.13 1207.24Q1193.17 1206.95 1193.23 1206.66Q1193.29 1206.37 1193.36 1206.08Q1193.43 1205.8 1193.52 1205.52Q1193.6 1205.23 1193.7 1204.96Q1193.8 1204.68 1193.91 1204.41Q1194.03 1204.14 1194.15 1203.87Q1194.28 1203.6 1194.42 1203.34Q1194.56 1203.08 1194.71 1202.83Q1194.86 1202.58 1195.02 1202.33Q1195.19 1202.09 1195.36 1201.85Q1195.54 1201.61 1195.72 1201.39Q1195.91 1201.16 1196.11 1200.94Q1196.31 1200.72 1196.51 1200.51Q1196.72 1200.31 1196.94 1200.11Q1197.16 1199.91 1197.39 1199.72Q1197.61 1199.54 1197.85 1199.36Q1198.09 1199.19 1198.33 1199.02Q1198.58 1198.86 1198.83 1198.71Q1199.08 1198.56 1199.34 1198.42Q1199.6 1198.28 1199.87 1198.15Q1200.14 1198.03 1200.41 1197.91Q1200.68 1197.8 1200.96 1197.7Q1201.23 1197.6 1201.52 1197.52Q1201.8 1197.43 1202.08 1197.36Q1202.37 1197.29 1202.66 1197.23Q1202.95 1197.17 1203.24 1197.13Q1203.53 1197.09 1203.82 1197.06Q1204.12 1197.03 1204.41 1197.01Q1204.71 1197 1205 1197Q1205.29 1197 1205.59 1197.01Q1205.88 1197.03 1206.18 1197.06Q1206.47 1197.09 1206.76 1197.13Q1207.05 1197.17 1207.34 1197.23Q1207.63 1197.29 1207.92 1197.36Q1208.2 1197.43 1208.48 1197.52Q1208.77 1197.6 1209.04 1197.7Q1209.32 1197.8 1209.59 1197.91Q1209.86 1198.03 1210.13 1198.15Q1210.4 1198.28 1210.66 1198.42Q1210.92 1198.56 1211.17 1198.71Q1211.42 1198.86 1211.67 1199.02Q1211.91 1199.19 1212.15 1199.36Q1212.38 1199.54 1212.61 1199.72Q1212.84 1199.91 1213.06 1200.11Q1213.28 1200.31 1213.49 1200.51Q1213.69 1200.72 1213.89 1200.94Q1214.09 1201.16 1214.28 1201.39Q1214.46 1201.61 1214.64 1201.85Q1214.81 1202.09 1214.98 1202.33Q1215.14 1202.58 1215.29 1202.83Q1215.44 1203.08 1215.58 1203.34Q1215.72 1203.6 1215.85 1203.87Q1215.97 1204.14 1216.09 1204.41Q1216.2 1204.68 1216.3 1204.96Q1216.4 1205.23 1216.48 1205.52Q1216.57 1205.8 1216.64 1206.08Q1216.71 1206.37 1216.77 1206.66Q1216.83 1206.95 1216.87 1207.24Q1216.91 1207.53 1216.94 1207.82Q1216.97 1208.12 1216.99 1208.41Q1217 1208.71 1217 1209Z"/>
	<path fill="rgb(255,255,255)" stroke="none" transform="scale(0.166667 0.166667)" d="M1206 1212M1219.2 1212Q1219.2 1212.32 1219.18 1212.65Q1219.17 1212.97 1219.14 1213.29Q1219.1 1213.62 1219.06 1213.94Q1219.01 1214.26 1218.95 1214.58Q1218.88 1214.89 1218.8 1215.21Q1218.73 1215.52 1218.63 1215.83Q1218.54 1216.14 1218.43 1216.45Q1218.32 1216.75 1218.2 1217.05Q1218.07 1217.35 1217.93 1217.64Q1217.79 1217.94 1217.64 1218.22Q1217.49 1218.51 1217.32 1218.79Q1217.16 1219.06 1216.98 1219.33Q1216.8 1219.6 1216.6 1219.86Q1216.41 1220.12 1216.2 1220.37Q1216 1220.62 1215.78 1220.86Q1215.56 1221.1 1215.33 1221.33Q1215.1 1221.56 1214.86 1221.78Q1214.62 1222 1214.37 1222.2Q1214.12 1222.41 1213.86 1222.6Q1213.6 1222.8 1213.33 1222.98Q1213.06 1223.16 1212.79 1223.32Q1212.51 1223.49 1212.22 1223.64Q1211.94 1223.79 1211.64 1223.93Q1211.35 1224.07 1211.05 1224.2Q1210.75 1224.32 1210.45 1224.43Q1210.14 1224.54 1209.83 1224.63Q1209.52 1224.73 1209.21 1224.8Q1208.89 1224.88 1208.58 1224.95Q1208.26 1225.01 1207.94 1225.06Q1207.62 1225.1 1207.29 1225.14Q1206.97 1225.17 1206.65 1225.18Q1206.32 1225.2 1206 1225.2Q1205.68 1225.2 1205.35 1225.18Q1205.03 1225.17 1204.71 1225.14Q1204.38 1225.1 1204.06 1225.06Q1203.74 1225.01 1203.42 1224.95Q1203.11 1224.88 1202.79 1224.8Q1202.48 1224.73 1202.17 1224.63Q1201.86 1224.54 1201.55 1224.43Q1201.25 1224.32 1200.95 1224.2Q1200.65 1224.07 1200.36 1223.93Q1200.06 1223.79 1199.78 1223.64Q1199.49 1223.49 1199.21 1223.32Q1198.94 1223.16 1198.67 1222.98Q1198.4 1222.8 1198.14 1222.6Q1197.88 1222.41 1197.63 1222.2Q1197.38 1222 1197.14 1221.78Q1196.9 1221.56 1196.67 1221.33Q1196.44 1221.1 1196.22 1220.86Q1196 1220.62 1195.8 1220.37Q1195.59 1220.12 1195.4 1219.86Q1195.2 1219.6 1195.02 1219.33Q1194.84 1219.06 1194.68 1218.79Q1194.51 1218.51 1194.36 1218.22Q1194.21 1217.94 1194.07 1217.64Q1193.93 1217.35 1193.8 1217.05Q1193.68 1216.75 1193.57 1216.45Q1193.46 1216.14 1193.37 1215.83Q1193.27 1215.52 1193.2 1215.21Q1193.12 1214.89 1193.05 1214.58Q1192.99 1214.26 1192.94 1213.94Q1192.9 1213.62 1192.86 1213.29Q1192.83 1212.97 1192.82 1212.65Q1192.8 1212.32 1192.8 1212Q1192.8 1211.68 1192.82 1211.35Q1192.83 1211.03 1192.86 1210.71Q1192.9 1210.38 1192.94 1210.06Q1192.99 1209.74 1193.05 1209.42Q1193.12 1209.11 1193.2 1208.79Q1193.27 1208.48 1193.37 1208.17Q1193.46 1207.86 1193.57 1207.55Q1193.68 1207.25 1193.8 1206.95Q1193.93 1206.65 1194.07 1206.36Q1194.21 1206.06 1194.36 1205.78Q1194.51 1205.49 1194.68 1205.21Q1194.84 1204.94 1195.02 1204.67Q1195.2 1204.4 1195.4 1204.14Q1195.59 1203.88 1195.8 1203.63Q1196 1203.38 1196.22 1203.14Q1196.44 1202.9 1196.67 1202.67Q1196.9 1202.44 1197.14 1202.22Q1197.38 1202 1197.63 1201.8Q1197.88 1201.59 1198.14 1201.4Q1198.4 1201.2 1198.67 1201.02Q1198.94 1200.84 1199.21 1200.68Q1199.49 1200.51 1199.78 1200.36Q1200.06 1200.21 1200.36 1200.07Q1200.65 1199.93 1200.95 1199.8Q1201.25 1199.68 1201.55 1199.57Q1201.86 1199.46 1202.17 1199.37Q1202.48 1199.27 1202.79 1199.2Q1203.11 1199.12 1203.42 1199.05Q1203.74 1198.99 1204.06 1198.94Q1204.38 1198.9 1204.71 1198.86Q1205.03 1198.83 1205.35 1198.82Q1205.68 1198.8 1206 1198.8Q1206.32 1198.8 1206.65 1198.82Q1206.97 1198.83 1207.29 1198.86Q1207.62 1198.9 1207.94 1198.94Q1208.26 1198.99 1208.58 1199.05Q1208.89 1199.12 1209.21 1199.2Q1209.52 1199.27 1209.83 1199.37Q1210.14 1199.46 1210.45 1199.57Q1210.75 1199.68 1211.05 1199.8Q1211.35 1199.93 1211.64 1200.07Q1211.94 1200.21 1212.22 1200.36Q1212.51 1200.51 1212.79 1200.68Q1213.06 1200.84 1213.33 1201.02Q1213.6 1201.2 1213.86 1201.4Q1214.12 1201.59 1214.37 1201.8Q1214.62 1202 1214.86 1202.22Q1215.1 1202.44 1215.33 1202.67Q1215.56 1202.9 1215.78 1203.14Q1216 1203.38 1216.2 1203.63Q1216.41 1203.88 1216.6 1204.14Q1216.8 1204.4 1216.98 1204.67Q1217.16 1204.94 1217.32 1205.21Q1217.49 1205.49 1217.64 1205.78Q1217.79 1206.06 1217.93 1206.36Q1218.07 1206.65 1218.2 1206.95Q1218.32 1207.25 1218.43 1207.55Q1218.54 1207.86 1218.63 1208.17Q1218.73 1208.48 1218.8 1208.79Q1218.88 1209.11 1218.95 1209.42Q1219.01 1209.74 1219.06 1210.06Q1219.1 1210.38 1219.14 1210.71Q1219.17 1211.03 1219.18 1211.35Q1219.2 1211.68 1219.2 1212Z"/>
	<path fill="none" stroke="rgb(255,255,255)" stroke-width="6" stroke-miterlimit="4" transform="scale(0.166667 0.166667)" d="M2286 1050L2286 1212"/>
	<path fill="rgb(255,255,255)" stroke="none" transform="scale(0.166667 0.166667)" d="M2286 1050L2316 1092L2256 1092L2286 1050"/>
	<defs>
		<linearGradient id="gradient_1" gradientUnits="userSpaceOnUse" x1="1980" y1="468" x2="2184" y2="1090">
			<stop offset="0" stop-color="rgb(232,232,255)"/>
			<stop offset="1" stop-color="rgb(248,248,255)"/>
		</linearGradient>
	</defs>
	<path fill="url(#gradient_1)" stroke="none" transform="scale(0.166667 0.166667)" d="M2042.65 706.01C1980 779 1986.27 972.582 2176.31 953.541C2226.44 1042.4 2364.27 1090 2408.13 947.194C2568.94 956.714 2594 899.592 2504.2 794.867C2585.65 601.286 2479.14 575.898 2408.13 633.02C2385.16 528.296 2232.7 531.469 2220.17 613.98C2144.99 468 2015.5 525.122 2042.65 706.01"/>
	<path fill="none" stroke="rgb(255,255,255)" stroke-width="6" stroke-miterlimit="4" transform="scale(0.166667 0.166667)" d="M2042.65 706.01C1980 779 1986.27 972.582 2176.31 953.541C2226.44 1042.4 2364.27 1090 2408.13 947.194C2568.94 956.714 2594 899.592 2504.2 794.867C2585.65 601.286 2479.14 575.898 2408.13 633.02C2385.16 528.296 2232.7 531.469 2220.17 613.98C2144.99 468 2015.5 525.122 2042.65 706.01"/>
	<text fill="rgb(255,255,255)" stroke="none" transform="scale(0.166667 0.166667)" font-size="84" font-family="DejaVu Sans" x="2262" y="213">
			Inputs
	</text>
	<text fill="rgb(0,0,0)" stroke="none" transform="scale(0.166667 0.166667)" font-size="84" font-family="DejaVu Sans" x="681" y="681">
			State
	</text>
	<text fill="rgb(0,0,0)" stroke="none" transform="scale(0.166667 0.166667)" font-size="84" font-family="DejaVu Sans" x="570" y="759">
			D
	</text>
	<text fill="rgb(0,0,0)" stroke="none" transform="scale(0.166667 0.166667)" font-size="84" font-family="DejaVu Sans" x="675" y="759">
			Index
	</text>
	<text fill="rgb(0,0,0)" stroke="none" transform="scale(0.166667 0.166667)" font-size="84" text-anchor="end" font-family="DejaVu Sans" x="1008" y="759">
			Q
	</text>
	<text fill="rgb(255,255,255)" stroke="none" transform="scale(0.166667 0.166667)" font-size="84" font-family="DejaVu Sans" x="1350" y="759">
			CFGRAM
	</text>
	<text fill="rgb(0,0,0)" stroke="none" transform="scale(0.166667 0.166667)" font-size="84" font-family="DejaVu Sans" x="2118" y="759">
			State
	</text>
	<text fill="rgb(255,255,255)" stroke="none" transform="scale(0.166667 0.166667)" font-size="84" font-family="DejaVu Sans" x="2802" y="759">
			Outputs
	</text>
	<text fill="rgb(0,0,0)" stroke="none" transform="scale(0.166667 0.166667)" font-size="84" font-family="DejaVu Sans" x="2118" y="837">
			Logic
	</text>
	<text fill="rgb(255,255,255)" stroke="none" transform="scale(0.166667 0.166667)" font-size="84" font-family="DejaVu Sans" x="102" y="1227">
			clk
	</text>
</svg>
